<?xml version="1.0" encoding="UTF-8" standalone="no"?>
<svg width="32px" height="32px" viewBox="0 0 32 32" version="1.1" xmlns="http://www.w3.org/2000/svg" xmlns:xlink="http://www.w3.org/1999/xlink">
    <!-- Generator: Sketch 3.6.1 (26313) - http://www.bohemiancoding.com/sketch -->
    <title>icon-pane-tab-history-outline-color-blue</title>
    <desc>Created with Sketch.</desc>
    <defs></defs>
    <g id="Page-1" stroke="none" stroke-width="1" fill="none" fill-rule="evenodd">
        <g id="Medium-32-X-32---Detail-Pane-Tab-colors">
            <g id="icon-pane-tab-history-outline-color-blue">
                <g transform="translate(6.000000, 7.000000)">
                    <path d="M13.1118793,10.7392383 L10.4190929,8.70352401 L10.3975936,8.695791 L10.3975936,4.10431766" id="Stroke-1" stroke="#3498DB" stroke-width="0.8" stroke-linecap="round"></path>
                    <g id="Group-6">
                        <path d="M2.3523813,8.12069971 C2.3523813,3.74571429 5.9462313,0.19941691 10.3798813,0.19941691 C14.8135313,0.19941691 18.4073813,3.74571429 18.4073813,8.12069971 C18.4073813,12.4956851 14.8135313,16.0419825 10.3798813,16.0419825 C8.1321813,16.0419825 6.1018413,15.1304257 4.6445413,13.6631603" id="Stroke-2" stroke="#3498DB" stroke-width="0.8" stroke-linecap="round"></path>
                        <path d="M4.574687,8.42487697 L2.534467,10.4381015 C2.480127,10.4917224 2.408497,10.5234076 2.329457,10.5234076 C2.252887,10.5234076 2.181257,10.4917224 2.126917,10.4381015 L0.086697,8.42487697 C0.032357,8.37125598 0.000247,8.29813644 0.000247,8.22257959 C0.000247,8.06659125 0.131157,7.93497609 0.291707,7.93497609 L4.369677,7.93497609 C4.530227,7.93497609 4.661137,8.06659125 4.661137,8.22257959 C4.661137,8.29813644 4.629027,8.37125598 4.574687,8.42487697" id="Fill-4" fill="#3498DB"></path>
                    </g>
                </g>
            </g>
        </g>
    </g>
</svg>