<?xml version="1.0" encoding="UTF-8" standalone="no"?>
<svg width="32px" height="32px" viewBox="0 0 32 32" version="1.1" xmlns="http://www.w3.org/2000/svg" xmlns:xlink="http://www.w3.org/1999/xlink">
    <!-- Generator: Sketch 3.6.1 (26313) - http://www.bohemiancoding.com/sketch -->
    <title>icon-nav-epic-outline</title>
    <desc>Created with Sketch.</desc>
    <defs></defs>
    <g id="Icons--All" stroke="none" stroke-width="1" fill="none" fill-rule="evenodd">
        <g id="Medium-32-X-32---Side-Nav">
            <g id="icon-nav-epic-outline">
                <g transform="translate(8.000000, 7.000000)">
                    <path d="M14.5,16.9996445 L1.5,16.9996445 C0.983870968,16.9996445 0.5,16.5956891 0.5,16.0621445 L0.5,2.9371445 C0.5,2.4067558 0.983870968,1.9996445 1.5,1.9996445 L14.5,1.9996445 C15.016129,1.9996445 15.5,2.4067558 15.5,2.9371445 L15.5,16.0621445 C15.5,16.5956891 15.016129,16.9996445 14.5,16.9996445 L14.5,16.9996445 Z" id="Stroke-1" stroke="#3498DB" stroke-width="0.8" stroke-linecap="round"></path>
                    <g id="Group-15" transform="translate(4.000000, 6.000000)">
                        <path d="M7.95694226,4.70588796 C7.95694226,4.52731632 7.88341276,4.35399679 7.7626143,4.22794622 L4.00735772,0.477941746 C3.73950026,0.210084284 3.23004587,0 2.85714626,0 L0.672269709,0 C0.304622212,0 0,0.304622212 0,0.672269709 L0,2.85714626 C0,3.23004587 0.210084284,3.73950026 0.477941746,4.00210561 L4.23319832,7.7626143 C4.35399679,7.88341276 4.52731632,7.95694226 4.70588796,7.95694226 C4.8844596,7.95694226 5.05777914,7.88341276 5.18382971,7.7626143 L7.7626143,5.1785776 C7.88341276,5.05777914 7.95694226,4.8844596 7.95694226,4.70588796 L7.95694226,4.70588796 Z" id="Type-something" stroke="#3498DB" stroke-width="0.8" stroke-linecap="round" stroke-linejoin="round"></path>
                        <path d="M2.82353222,2.15126251 C2.82353222,2.52416211 2.52416211,2.82353222 2.15126251,2.82353222 C1.7783629,2.82353222 1.4789928,2.52416211 1.4789928,2.15126251 C1.4789928,1.7783629 1.7783629,1.4789928 2.15126251,1.4789928 C2.52416211,1.4789928 2.82353222,1.7783629 2.82353222,2.15126251 L2.82353222,2.15126251 Z" id="Path" fill="#3498DB"></path>
                    </g>
                </g>
            </g>
        </g>
    </g>
</svg>