<?xml version="1.0" encoding="UTF-8" standalone="no"?>
<svg width="32px" height="32px" viewBox="0 0 32 32" version="1.1" xmlns="http://www.w3.org/2000/svg" xmlns:xlink="http://www.w3.org/1999/xlink">
    <!-- Generator: Sketch 3.6.1 (26313) - http://www.bohemiancoding.com/sketch -->
    <title>icon-pane-tab-history-solid-color-blue</title>
    <desc>Created with Sketch.</desc>
    <defs></defs>
    <g id="Page-1" stroke="none" stroke-width="1" fill="none" fill-rule="evenodd">
        <g id="Medium-32-X-32---Detail-Pane-Tab-colors">
            <g id="icon-pane-tab-history-solid-color-blue">
                <g transform="translate(6.000000, 7.000000)">
                    <g id="Group-6">
                        <path d="M2.34837402,8.12069971 C2.34837402,3.74571429 5.94222402,0.19941691 10.375874,0.19941691 C14.809524,0.19941691 18.403374,3.74571429 18.403374,8.12069971 C18.403374,12.4956851 14.809524,16.0419825 10.375874,16.0419825 C8.12817402,16.0419825 6.09783402,15.1304257 4.64053402,13.6631603" id="Stroke-2" stroke="#3498DB" stroke-width="0.8" stroke-linecap="round"></path>
                        <path d="M4.574687,8.42487697 L2.534467,10.4381015 C2.480127,10.4917224 2.408497,10.5234076 2.329457,10.5234076 C2.252887,10.5234076 2.181257,10.4917224 2.126917,10.4381015 L0.086697,8.42487697 C0.032357,8.37125598 0.000247,8.29813644 0.000247,8.22257959 C0.000247,8.06659125 0.131157,7.93497609 0.291707,7.93497609 L4.369677,7.93497609 C4.530227,7.93497609 4.661137,8.06659125 4.661137,8.22257959 C4.661137,8.29813644 4.629027,8.37125598 4.574687,8.42487697" id="Fill-4" fill="#3498DB"></path>
                    </g>
                    <path d="M10.4394428,13.5488017 C13.43756,13.5488017 15.8680142,11.1183474 15.8680142,8.12023023 C15.8680142,5.12211301 13.43756,2.6916588 10.4394428,2.6916588 C7.44132558,2.6916588 5.01087136,5.12211301 5.01087136,8.12023023 C5.01087136,11.1183474 7.44132558,13.5488017 10.4394428,13.5488017 Z M10.6690222,8.55398713 L10.6690222,4.10431766 C10.6690222,3.9544118 10.5474994,3.83288909 10.3975936,3.83288909 C10.2476877,3.83288909 10.126165,3.9544118 10.126165,4.10431766 L10.126165,8.695791 C10.126165,8.81027602 10.197998,8.91245182 10.3057263,8.95120023 L10.3272256,8.95893324 L12.9481936,10.9557572 C13.0677737,11.0461584 13.2379971,11.0225041 13.3283982,10.902924 C13.4187994,10.7833439 13.3951451,10.6131205 13.275565,10.5227194 L10.6690222,8.55398713 Z" id="Combined-Shape" fill="#3498DB"></path>
                </g>
            </g>
        </g>
    </g>
</svg>