<?xml version="1.0" encoding="UTF-8" standalone="no"?>
<svg width="32px" height="32px" viewBox="0 0 32 32" version="1.1" xmlns="http://www.w3.org/2000/svg" xmlns:xlink="http://www.w3.org/1999/xlink">
    <!-- Generator: Sketch 3.6.1 (26313) - http://www.bohemiancoding.com/sketch -->
    <title>icon-feed-settings-solid-color</title>
    <desc>Created with Sketch.</desc>
    <defs></defs>
    <g id="Page-1" stroke="none" stroke-width="1" fill="none" fill-rule="evenodd">
        <g id="Medium-32-X-32---Inbox-Feed" stroke-width="0.8" stroke="#3498DB" fill="#3498DB">
            <g id="icon-feed-settings-solid-color">
                <g transform="translate(8.000000, 8.000000)" id="Combined-Shape">
                    <path d="M15.7261142,9.14183995 C15.7261142,9.29082013 15.6056956,9.46978375 15.4445052,9.49976719 L13.5832307,9.77805093 C13.473242,10.0956879 13.3518752,10.3936483 13.1906848,10.6822388 C13.5329773,11.1694696 13.8961297,11.6070404 14.2668675,12.0549179 C14.3284991,12.1242546 14.3683226,12.2132679 14.3683226,12.3032182 C14.3683226,12.3931685 14.3370327,12.4625052 14.2772974,12.5318419 C14.0364601,12.8494789 12.6786684,14.3121083 12.3354278,14.3121083 C12.2453508,14.3121083 12.1543257,14.272755 12.0737305,14.222158 L10.6855971,13.1474393 C10.3945063,13.2973564 10.0825555,13.425723 9.76965663,13.5259801 C9.69949141,14.1331446 9.63975617,14.7787254 9.47856581,15.3755832 C9.43874231,15.5348701 9.29746371,15.6538669 9.11541343,15.6538669 L6.88434931,15.6538669 C6.70229903,15.6538669 6.54110868,15.5245633 6.52214511,15.3549695 L6.24053608,13.5259801 C5.92763716,13.425723 5.62611638,13.3076632 5.33407739,13.1577461 L3.91560229,14.222158 C3.84543708,14.2811878 3.75441194,14.3121083 3.66528315,14.3121083 C3.57425801,14.3121083 3.48323287,14.272755 3.41306766,14.2024813 C2.88019132,13.7246204 2.17474648,13.109023 1.75280703,12.5318419 C1.70255356,12.4625052 1.68169364,12.3828617 1.68169364,12.3032182 C1.68169364,12.2132679 1.71298353,12.1429942 1.76323699,12.0736575 C2.10458127,11.6173472 2.47721544,11.1797764 2.81855971,10.7131593 C2.64883575,10.3936483 2.50755715,10.0666415 2.40705022,9.72839087 L0.565687489,9.45947695 C0.394067173,9.4304305 0.273648497,9.27114351 0.273648497,9.10154971 L0.273648497,6.89495641 C0.273648497,6.74597622 0.394067173,6.5670126 0.54577574,6.53702917 L2.41653201,6.25874543 C2.51798711,5.94110843 2.64883575,5.64221108 2.81002611,5.34425071 C2.46678547,4.86732672 2.10458127,4.41944918 1.73384346,3.97157165 C1.67221185,3.90223496 1.63238835,3.82352844 1.63238835,3.73357814 C1.63238835,3.64456483 1.67221185,3.57522814 1.72341349,3.50495446 C1.96330266,3.17701066 3.32204252,1.72562509 3.66528315,1.72562509 C3.75441194,1.72562509 3.84543708,1.76497834 3.92603225,1.82494521 L5.31511382,2.88842011 C5.60525646,2.73943993 5.91815538,2.61013637 6.23010612,2.51081625 C6.30027133,1.9045887 6.36095476,1.25807092 6.52214511,0.662150182 C6.56196861,0.502863192 6.70229903,0.38386644 6.88434931,0.38386644 L9.11541343,0.38386644 C9.29746371,0.38386644 9.45865406,0.512233015 9.47856581,0.68182681 L9.76017484,2.51081625 C10.0721256,2.61013637 10.3745945,2.73007011 10.6656854,2.87811331 L12.0945904,1.81557539 C12.1543257,1.75560852 12.2453508,1.72562509 12.3354278,1.72562509 C12.4264529,1.72562509 12.5174781,1.76497834 12.5876433,1.82494521 C13.1195714,2.312176 13.8250163,2.92871035 14.2479039,3.51432429 C14.2972092,3.57522814 14.3180691,3.65393465 14.3180691,3.73357814 C14.3180691,3.82352844 14.2877274,3.89286513 14.2374739,3.96220182 C13.8961297,4.41944918 13.5234955,4.85701992 13.181203,5.32457408 C13.3518752,5.64221108 13.4922056,5.97109186 13.5936607,6.29903567 L15.4340753,6.57731941 C15.6056956,6.60730284 15.7261142,6.76565285 15.7261142,6.93524665 L15.7261142,9.14183995 Z M7.97657642,5.21418798 C6.42411195,5.21418798 5.15790398,6.46544434 5.15790398,7.99957706 C5.15790398,9.53370977 6.42411195,10.7849661 7.97657642,10.7849661 C9.5280867,10.7849661 10.7942947,9.53370977 10.7942947,7.99957706 C10.7942947,6.46544434 9.5280867,5.21418798 7.97657642,5.21418798 Z"></path>
                </g>
            </g>
        </g>
    </g>
</svg>