<?xml version="1.0"?>
<svg width="32" height="32" xmlns="http://www.w3.org/2000/svg" xmlns:svg="http://www.w3.org/2000/svg">
 <g class="layer">
  <title>Layer 1</title>
  <g fill="none" fill-rule="evenodd" id="svg_1" transform="translate(3 6.856)">
   <rect height="14.98" id="svg_2" rx="3" stroke="#3498DB" stroke-linejoin="round" stroke-width="0.8" width="22" x="2.024014" y="0.651801"/>
   <path d="m8.774014,10.651801a1.486,1.486 0 0 1 -0.125,-0.379c-0.242,0.305 -0.58,0.457 -1.016,0.457a1.5,1.5 0 0 1 -1.015,-0.361a1.15,1.15 0 0 1 -0.418,-0.908c0,-0.459 0.17,-0.805 0.508,-1.04c0.338,-0.234 0.83,-0.351 1.476,-0.351l0.406,0l0,-0.223c0,-0.388 -0.168,-0.582 -0.503,-0.582c-0.313,0 -0.47,0.154 -0.47,0.461l-1.315,0c0,-0.409 0.174,-0.74 0.522,-0.996c0.347,-0.255 0.79,-0.383 1.33,-0.383c0.539,0 0.965,0.132 1.277,0.395c0.313,0.263 0.473,0.624 0.48,1.082l0,1.871c0.006,0.388 0.066,0.685 0.18,0.89l0,0.067l-1.317,0zm-0.824,-0.86c0.164,0 0.3,-0.035 0.408,-0.105a0.661,0.661 0 0 0 0.232,-0.238l0,-0.677l-0.382,0c-0.459,0 -0.688,0.206 -0.688,0.617c0,0.12 0.04,0.217 0.121,0.291c0.08,0.075 0.184,0.112 0.309,0.112zm6.904,-1.218c0,0.693 -0.143,1.225 -0.43,1.598c-0.286,0.372 -0.69,0.558 -1.21,0.558c-0.43,0 -0.777,-0.17 -1.04,-0.512l-0.054,0.434l-1.18,0l0,-6l1.316,0l0,2.113c0.245,-0.278 0.562,-0.418 0.95,-0.418c0.526,0 0.932,0.19 1.218,0.567c0.287,0.377 0.43,0.909 0.43,1.593l0,0.067zm-1.32,-0.082c0,-0.406 -0.054,-0.696 -0.162,-0.87c-0.109,-0.172 -0.275,-0.26 -0.498,-0.26c-0.297,0 -0.503,0.114 -0.618,0.34l0,1.68c0.112,0.224 0.32,0.336 0.625,0.336c0.31,0 0.507,-0.15 0.59,-0.453c0.042,-0.148 0.063,-0.406 0.063,-0.773zm3.978,1.223c0.185,0 0.328,-0.05 0.43,-0.15c0.101,-0.101 0.15,-0.241 0.148,-0.42l1.235,0c0,0.463 -0.166,0.843 -0.498,1.14c-0.333,0.297 -0.76,0.445 -1.284,0.445c-0.614,0 -1.099,-0.193 -1.453,-0.578c-0.354,-0.385 -0.531,-0.92 -0.531,-1.602l0,-0.054c0,-0.427 0.079,-0.804 0.236,-1.131a1.72,1.72 0 0 1 0.682,-0.754c0.297,-0.176 0.648,-0.264 1.055,-0.264c0.55,0 0.985,0.153 1.308,0.457c0.323,0.305 0.485,0.718 0.485,1.239l-1.235,0c0,-0.22 -0.053,-0.387 -0.16,-0.504a0.553,0.553 0 0 0 -0.43,-0.176c-0.34,0 -0.54,0.217 -0.597,0.652a4.603,4.603 0 0 0 -0.028,0.57c0,0.425 0.051,0.72 0.153,0.883c0.101,0.164 0.263,0.246 0.484,0.246l0,0.001z" fill="#3498DB" id="svg_3"/>
  </g>
 </g>
</svg>