<?xml version="1.0" encoding="UTF-8" standalone="no"?>
<svg width="32px" height="32px" viewBox="0 0 32 32" version="1.1" xmlns="http://www.w3.org/2000/svg" xmlns:xlink="http://www.w3.org/1999/xlink">
    <!-- Generator: Sketch 3.6.1 (26313) - http://www.bohemiancoding.com/sketch -->
    <title>icon-feed-milestone-solid</title>
    <desc>Created with Sketch.</desc>
    <defs></defs>
    <g id="Page-1" stroke="none" stroke-width="1" fill="none" fill-rule="evenodd">
        <g id="Medium-32-X-32---Inbox-Feed">
            <g id="icon-feed-milestone-solid">
                <g transform="translate(8.000000, 7.000000)">
                    <path d="M4.96238079,3.6505787 L4.96238079,0.598647065" id="Line" stroke="#58BFE8" stroke-width="0.8" stroke-linecap="round"></path>
                    <path d="M10.9623808,3.6505787 L10.9623808,0.598647065" id="Line" stroke="#58BFE8" stroke-width="0.8" stroke-linecap="round"></path>
                    <path d="M14.5,16.9996445 L1.5,16.9996445 C0.983870968,16.9996445 0.5,16.5956891 0.5,16.0621445 L0.5,2.9371445 C0.5,2.4067558 0.983870968,1.9996445 1.5,1.9996445 L14.5,1.9996445 C15.016129,1.9996445 15.5,2.4067558 15.5,2.9371445 L15.5,16.0621445 C15.5,16.5956891 15.016129,16.9996445 14.5,16.9996445 L14.5,16.9996445 Z" id="Stroke-1" stroke="#58BFE8" stroke-width="0.8" fill="#58BFE8"></path>
                    <path d="M4.44067068,10.083287 L11.529754,10.083287" id="Line" stroke="#FFFFFF" stroke-width="0.8" stroke-linecap="round" stroke-linejoin="round"></path>
                    <path d="M13.7201576,9.15069741 L11.4426135,11.3981057 C11.3819526,11.4579641 11.3019904,11.4933349 11.2137562,11.4933349 C11.1282794,11.4933349 11.0483172,11.4579641 10.9876562,11.3981057 L8.71011218,9.15069741 C8.64945121,9.09083908 8.61360608,9.00921408 8.61360608,8.92486825 C8.61360608,8.75073491 8.75974389,8.60380992 8.93896951,8.60380992 L13.4913002,8.60380992 C13.6705258,8.60380992 13.8166637,8.75073491 13.8166637,8.92486825 C13.8166637,9.00921408 13.7808185,9.09083908 13.7201576,9.15069741" id="Fill-4" fill="#FFFFFF" transform="translate(11.215135, 10.048572) scale(-1, 1) rotate(-270.000000) translate(-11.215135, -10.048572) "></path>
                </g>
            </g>
        </g>
    </g>
</svg>