<?xml version="1.0" encoding="UTF-8"?>
<svg width="24px" height="24px" viewBox="0 0 24 24" version="1.1" xmlns="http://www.w3.org/2000/svg" xmlns:xlink="http://www.w3.org/1999/xlink">
    <!-- Generator: Sketch 3.6.1 (26313) - http://www.bohemiancoding.com/sketch -->
    <title>icon-calendar-url</title>
    <desc>Created with Sketch.</desc>
    <defs>
        <path id="path-1" d="M4.87566301,8.62101332 C3.79730617,8.62087739 2.71927956,8.20979862 1.898514,7.389033 C1.076861,6.56738 0.6666187,5.489794 0.6665337,4.412468 L0.6665337,4.411799 C0.6666188,3.333375 1.077698,2.255266 1.898514,1.43445 C2.719687,0.613274 3.796497,0.203032 4.873195,0.202469 L4.877628,0.202469 C5.955424,0.203032 7.032758,0.614111 7.853098,1.43445 C8.674481,2.255832 9.084723,3.332979 9.085078,4.409947 L9.085078,4.412743 C9.084723,5.490813 8.673644,6.568485 7.853098,7.389033 C7.03149618,8.21063481 5.95399225,8.62087753 4.87673308,8.62101332 L4.875663,8.62101332 L4.87566301,8.62101332 Z"></path>
        <path id="path-3" d="M4.58371,0.4893 C3.5079,0.49053 2.432185,0.90077 1.611689,1.72127 C-0.029278,3.36224 -0.032624,6.031547 1.611689,7.675859 C3.25266,9.316826 5.92196,9.320172 7.56628,7.675859 C8.38668,6.855452 8.79775,5.77801 8.79825,4.70013 L8.79825,4.69621 C8.79776,3.61943 8.38751,2.54251 7.56628,1.72127 C6.74661,0.90161 5.67037,0.49053 4.59346,0.4893 L4.58371,0.4893 L4.58371,0.4893 Z"></path>
    </defs>
    <g id="Icons--All" stroke="none" stroke-width="1" fill="none" fill-rule="evenodd">
        <g id="medium-24x24">
            <g id="icon-calendar-url">
                <g id="Group-3" transform="translate(4.000000, 11.000000)">
                    <mask id="mask-2" fill="white">
                        <use xlink:href="#path-1"></use>
                    </mask>
                    <g id="Clip-2"></g>
                    <path d="M1.8985137,7.389033 C0.2542009,5.74472 0.2575472,3.075416 1.8985137,1.434449 L1.8985137,1.434449 C3.5428267,-0.2098638 6.2121307,-0.2065175 7.8530977,1.434449 L7.8530977,1.434449 C9.4974107,3.078762 9.4940647,5.748065 7.8530977,7.389033 L7.8530977,7.389033 C6.2087847,9.033346 3.5394817,9.03 1.8985137,7.389033 L1.8985137,7.389033 L1.8985137,7.389033 Z" id="Stroke-1" stroke="#3498DB" stroke-width="2.5" mask="url(#mask-2)"></path>
                </g>
                <g id="Group-6" transform="translate(11.000000, 4.000000)">
                    <mask id="mask-4" fill="white">
                        <use xlink:href="#path-3"></use>
                    </mask>
                    <g id="Clip-5"></g>
                    <path d="M1.611688,7.675864 C-0.0326248,6.031551 -0.0292785,3.362247 1.611688,1.72128 L1.611688,1.72128 C3.256001,0.0769672 5.925305,0.0803135 7.566272,1.72128 L7.566272,1.72128 C9.210585,3.365593 9.207239,6.034896 7.566272,7.675864 L7.566272,7.675864 C5.921959,9.320177 3.252656,9.316831 1.611688,7.675864 L1.611688,7.675864 L1.611688,7.675864 Z" id="Stroke-4" stroke="#3498DB" stroke-width="2.5" mask="url(#mask-4)"></path>
                </g>
                <g id="Group-9" transform="translate(8.000000, 8.000000)">
                    <path d="M2.085778,6.903562 L7.06026,1.92908 C7.375835,1.613505 7.375835,1.1018566 7.06026,0.7862813 C6.744685,0.47070618 6.233036,0.47070624 5.917461,0.7862814 L0.9429794,5.760763 C0.62740421,6.076339 0.62740421,6.587987 0.9429794,6.903562 C1.2585546,7.219137 1.770203,7.219137 2.085778,6.903562 L2.085778,6.903562 L2.085778,6.903562 Z" id="Stroke-7" stroke="#FFFFFF" stroke-width="2"></path>
                    <path d="M1.514379,6.332162 L6.488861,1.35768" id="Stroke-8" stroke="#3498DB" stroke-width="1.5" stroke-linecap="round"></path>
                </g>
            </g>
        </g>
    </g>
</svg>
