<?xml version="1.0" encoding="UTF-8" standalone="no"?>
<svg width="32px" height="32px" viewBox="0 0 32 32" version="1.1" xmlns="http://www.w3.org/2000/svg" xmlns:xlink="http://www.w3.org/1999/xlink">
    <!-- Generator: Sketch 3.6.1 (26313) - http://www.bohemiancoding.com/sketch -->
    <title>icon-feed-file-share-solid</title>
    <desc>Created with Sketch.</desc>
    <defs></defs>
    <g id="Page-1" stroke="none" stroke-width="1" fill="none" fill-rule="evenodd" stroke-linejoin="bevel">
        <g id="Medium-32-X-32---Inbox-Feed" stroke-width="0.8" stroke="#58BFE8">
            <g id="icon-feed-file-share-solid">
                <g transform="translate(10.000000, 8.000000)">
                    <path d="M2.90556488,2.5109332 L2.90556488,0.935604985 C2.90556488,0.662922185 2.99467699,0.438716327 3.17413887,0.264199335 C3.35236309,0.087258496 3.5813317,0 3.8610447,0 L10.0766142,0 C10.1137443,0 10.1731523,0.0206027004 10.2548384,0.0581723307 L12.8836456,2.63350989 C12.923251,2.71107299 12.9442914,2.76924532 12.9442914,2.80802688 L12.9442914,11.7023339 C12.9442914,11.9762286 12.8539416,12.1980106 12.673242,12.3749514 C12.4950178,12.5506803 12.2648115,12.6379388 11.9875739,12.6379388 L10.2548384,12.6379392" id="Stroke-1"></path>
                    <path d="M10.4888885,5.22094508 L10.4888885,14.5140953 C10.4888885,14.8002722 10.3944872,15.0319995 10.2056846,15.2168748 C10.0194683,15.4004838 9.77893903,15.4916552 9.48926932,15.4916552 L0.998325963,15.4916552 C0.706069917,15.4916552 0.466833773,15.4004838 0.280617531,15.2168748 C0.0931081209,15.0319995 2.13162821e-14,14.8002722 2.13162821e-14,14.5140953 L2.13162821e-14,3.26455904 C2.13162821e-14,2.97964845 0.0931081209,2.74538863 0.280617531,2.56304585 C0.466833773,2.37817054 0.706069917,2.28699915 0.998325963,2.28699915 L7.4926174,2.28699915 C7.53141245,2.28699915 7.59348453,2.30852573 7.67883364,2.34778008 L10.4255232,5.0386023 C10.4669046,5.11964354 10.4888885,5.18042446 10.4888885,5.22094508 L10.4888885,5.22094508 Z" id="Stroke-3" fill="#58BFE8"></path>
                </g>
            </g>
        </g>
    </g>
</svg>