<?xml version="1.0" encoding="UTF-8"?>
<svg width="32px" height="32px" viewBox="0 0 32 32" version="1.1" xmlns="http://www.w3.org/2000/svg" xmlns:xlink="http://www.w3.org/1999/xlink">
    <!-- Generator: Sketch 44.1 (41455) - http://www.bohemiancoding.com/sketch -->
    <title>icon-calendar-event-hangout</title>
    <desc>Created with Sketch.</desc>
    <defs></defs>
    <g id="Adjuster-exporter" stroke="none" stroke-width="1" fill="none" fill-rule="evenodd">
        <g id="medium-32X32">
            <g id="icon-calendar-event-hangout">
                <g id="old" transform="translate(4.000000, 4.000000)">
                    <rect id="Rectangle-2" stroke="#3498DB" stroke-width="0.8" x="0" y="0" width="24" height="24" rx="2"></rect>
                    <path d="M18,8 C18,8.48125 17.9017857,8.323125 18,8 C17.7114955,8.23375 17.65625,8.22 18,8 C17.5027902,8.22 17.4045759,8.26125 18,8 L14.8571429,11.52 L14.8571429,9.76 C14.8571429,8.886875 14.0652902,8 13.2857143,8 L8.57142857,8 C7.79185268,8 7,8.886875 7,9.76 L7,15.04 C7,15.913125 7.79185268,16.8 8.57142857,16.8 L13.2857143,16.8 C14.0652902,16.8 14.8571429,15.913125 14.8571429,15.04 L14.8571429,13.28 L18,16.8 C17.4045759,16.53875 17.5027902,16.58 18,16.8 C17.65625,16.58 17.7114955,16.56625 18,16.8 C17.9017857,16.476875 18,16.31875 18,16.8 L18,8 Z" id="Type-something" fill="#3498DB"></path>
                </g>
            </g>
        </g>
    </g>
</svg>