<?xml version="1.0" encoding="UTF-8" standalone="no"?>
<svg width="32px" height="32px" viewBox="0 0 32 32" version="1.1" xmlns="http://www.w3.org/2000/svg" xmlns:xlink="http://www.w3.org/1999/xlink">
    <!-- Generator: Sketch 3.6.1 (26313) - http://www.bohemiancoding.com/sketch -->
    <title>icon-feed-sprint-solid</title>
    <desc>Created with Sketch.</desc>
    <defs></defs>
    <g id="Page-1" stroke="none" stroke-width="1" fill="none" fill-rule="evenodd">
        <g id="Medium-32-X-32---Inbox-Feed">
            <g id="icon-feed-sprint-solid">
                <g transform="translate(8.000000, 7.000000)">
                    <path d="M4.96238079,3.6505787 L4.96238079,0.598647065" id="Line" stroke="#58BFE8" stroke-width="0.8" stroke-linecap="round"></path>
                    <path d="M10.9623808,3.6505787 L10.9623808,0.598647065" id="Line" stroke="#58BFE8" stroke-width="0.8" stroke-linecap="round"></path>
                    <path d="M14.5,16.9996445 L1.5,16.9996445 C0.983870968,16.9996445 0.5,16.5956891 0.5,16.0621445 L0.5,2.9371445 C0.5,2.4067558 0.983870968,1.9996445 1.5,1.9996445 L14.5,1.9996445 C15.016129,1.9996445 15.5,2.4067558 15.5,2.9371445 L15.5,16.0621445 C15.5,16.5956891 15.016129,16.9996445 14.5,16.9996445 L14.5,16.9996445 Z" id="Stroke-1" stroke="#58BFE8" stroke-width="0.8" fill="#58BFE8"></path>
                    <g id="Group-11" transform="translate(7.106765, 10.099821) scale(-1, 1) translate(-7.106765, -10.099821) translate(1.606765, 5.599821)">
                        <path d="M7.7249612,6.76069511 C8.22299028,6.10016799 8.5172726,5.28410246 8.5172726,4.40091354 C8.5172726,2.20064723 6.69082401,0.416978954 4.43778548,0.416978954 C2.18474696,0.416978954 0.358298362,2.20064723 0.358298362,4.40091354 C0.358298362,6.60117986 2.18474696,8.38484813 4.43778548,8.38484813 C4.67561786,8.38484813 4.90869673,8.3649726 5.13537545,8.32682957" id="Oval-3" stroke="#FFFFFF" stroke-width="0.8" stroke-linecap="round"></path>
                        <path d="M10.2977384,5.21002307 L8.0201944,7.45743138 C7.95953342,7.51728971 7.87957122,7.55266054 7.79133707,7.55266054 C7.70586024,7.55266054 7.62589804,7.51728971 7.56523706,7.45743138 L5.28769305,5.21002307 C5.22703207,5.15016473 5.19118695,5.06853973 5.19118695,4.9841939 C5.19118695,4.81006057 5.33732476,4.66313557 5.51655038,4.66313557 L10.0688811,4.66313557 C10.2481067,4.66313557 10.3942445,4.81006057 10.3942445,4.9841939 C10.3942445,5.06853973 10.3583994,5.15016473 10.2977384,5.21002307" id="Fill-4" fill="#FFFFFF" transform="translate(7.792716, 6.107898) scale(-1, 1) rotate(-25.000000) translate(-7.792716, -6.107898) "></path>
                    </g>
                </g>
            </g>
        </g>
    </g>
</svg>